<svg xmlns="http://www.w3.org/2000/svg" width="725" height="258" fill-rule="evenodd" viewBox="0 0 72500 25836" xmlns:xlink="http://www.w3.org/1999/xlink" shape-rendering="geometricPrecision" text-rendering="geometricPrecision" image-rendering="optimizeQuality" clip-rule="evenodd"><defs><style><![CDATA[
    .fil39 {fill:#D7B56D}
    .fil41 {fill:#FFFBDB}
    .fil3 {fill:#885633}
    .fil40 {fill:#7E4A33}
    .fil37 {fill:#3D3B72;fill-rule:nonzero}
    .fil38 {fill:#E31E24;fill-rule:nonzero}
    .fil16 {fill:url(#id0)}
    .fil17 {fill:url(#id1)}
    .fil34 {fill:url(#id2)}
    .fil35 {fill:url(#id3)}
    .fil12 {fill:url(#id4)}
    .fil30 {fill:url(#id5)}
    .fil10 {fill:url(#id6)}
    .fil4 {fill:url(#id7)}
    .fil28 {fill:url(#id8)}
    .fil0 {fill:url(#id9)}
    .fil27 {fill:url(#id10)}
    .fil22 {fill:url(#id11)}
    .fil19 {fill:url(#id12)}
    .fil36 {fill:url(#id13)}
    .fil18 {fill:url(#id14)}
    .fil9 {fill:url(#id15)}
    .fil2 {fill:url(#id16)}
    .fil21 {fill:url(#id17)}
    .fil6 {fill:url(#id18)}
    .fil24 {fill:url(#id19)}
    .fil31 {fill:url(#id20)}
    .fil13 {fill:url(#id21)}
    .fil26 {fill:url(#id22)}
    .fil8 {fill:url(#id23)}
    .fil25 {fill:url(#id24)}
    .fil7 {fill:url(#id25)}
    .fil1 {fill:url(#id26)}
    .fil20 {fill:url(#id27)}
    .fil5 {fill:url(#id28)}
    .fil23 {fill:url(#id29)}
    .fil32 {fill:url(#id30)}
    .fil33 {fill:url(#id31)}
    .fil14 {fill:url(#id32)}
    .fil15 {fill:url(#id33)}
    .fil29 {fill:url(#id34);fill-rule:nonzero}
    .fil11 {fill:url(#id35);fill-rule:nonzero}
   ]]></style><linearGradient id="id0" x1="56231.5" x2="64871.8" y1="20047.9" y2="15852.4" gradientUnits="userSpaceOnUse"><stop offset="0" stop-color="#FFF7B2"/><stop offset=".51" stop-color="#FEFEFE"/><stop offset="1" stop-color="#FFF7B2"/></linearGradient><linearGradient id="id1" x1="56663.2" x2="65199.1" y1="20671.4" y2="16526.7" gradientUnits="userSpaceOnUse" xlink:href="#id0"/><linearGradient id="id2" x1="64859.8" x2="68533.7" y1="25526.7" y2="16656.8" gradientUnits="userSpaceOnUse" xlink:href="#id0"/><linearGradient id="id3" x1="65596.5" x2="69226.1" y1="25706.5" y2="16943.6" gradientUnits="userSpaceOnUse" xlink:href="#id0"/><linearGradient id="id4" x1="56418.5" x2="64135.2" y1="20388.5" y2="16641.6" gradientUnits="userSpaceOnUse"><stop offset="0" stop-color="#D7B56D"/><stop offset=".51" stop-color="#FFF7B2"/><stop offset="1" stop-color="#CC923D"/></linearGradient><linearGradient id="id5" x1="65222.1" x2="68510.3" y1="25665.8" y2="17727.4" gradientUnits="userSpaceOnUse" xlink:href="#id4"/><linearGradient id="id6" x1="66707.3" x2="65312.1" y1="18410.3" y2="13467.8" gradientUnits="userSpaceOnUse"><stop offset="0" stop-color="#42312E"/><stop offset="1" stop-color="#CC923D"/></linearGradient><linearGradient id="id7" x1="70108.6" x2="55527.3" y1="16441.2" y2="19249.1" gradientUnits="userSpaceOnUse"><stop offset="0" stop-color="#42312E"/><stop offset=".2" stop-color="#CC923D"/><stop offset=".29" stop-color="#D7B56D"/><stop offset=".549" stop-color="#FDDD70"/><stop offset=".761" stop-color="#FDE389"/><stop offset="1" stop-color="#FFFBDB"/></linearGradient><linearGradient id="id8" x1="67252.7" x2="71420.6" y1="14580.4" y2="17241.2" gradientUnits="userSpaceOnUse"><stop offset="0" stop-color="#42312E"/><stop offset="1" stop-color="#D7B56D"/></linearGradient><linearGradient id="id9" x1="72144.8" x2="64706.9" y1="15594.1" y2="18068.7" gradientUnits="userSpaceOnUse"><stop offset="0" stop-color="#D7B56D"/><stop offset="1" stop-color="#42312E"/></linearGradient><linearGradient id="id10" x1="67861" x2="67679.8" y1="16334.1" y2="17400.9" gradientUnits="userSpaceOnUse"><stop offset="0" stop-color="#FFF7B2"/><stop offset="1" stop-color="#CC923D"/></linearGradient><linearGradient id="id11" x1="72901.7" x2="63741.7" y1="13539.8" y2="25477.5" gradientUnits="userSpaceOnUse"><stop offset="0" stop-color="#BB792E"/><stop offset=".22" stop-color="#FFF7B2"/><stop offset=".369" stop-color="#CC923D"/><stop offset=".549" stop-color="#FDDD70"/><stop offset=".761" stop-color="#FDE389"/><stop offset="1" stop-color="#FFFBDB"/></linearGradient><linearGradient id="id12" x1="73770" x2="69914.7" y1="11687.9" y2="18366.6" gradientUnits="userSpaceOnUse" xlink:href="#id9"/><linearGradient id="id13" x1="69876.4" x2="66618.7" y1="18298.3" y2="26163.1" gradientUnits="userSpaceOnUse"><stop offset="0" stop-color="#42312E"/><stop offset=".451" stop-color="#D4AB5D"/><stop offset="1" stop-color="#42312E"/></linearGradient><linearGradient id="id14" x1="64786.5" x2="57123.7" y1="17970.9" y2="21691.9" gradientUnits="userSpaceOnUse" xlink:href="#id13"/><linearGradient id="id15" x1="64588.1" x2="63730.1" y1="15159.6" y2="15848.5" gradientUnits="userSpaceOnUse" xlink:href="#id10"/><linearGradient id="id16" x1="68988" x2="66434.2" y1="14326.1" y2="15484.8" gradientUnits="userSpaceOnUse" xlink:href="#id9"/><linearGradient id="id17" x1="70600.8" x2="69457.5" y1="12777.5" y2="15345.9" gradientUnits="userSpaceOnUse" xlink:href="#id9"/><linearGradient id="id18" x1="64261.1" x2="56202.8" y1="16682.9" y2="20047.2" gradientUnits="userSpaceOnUse"><stop offset="0" stop-color="#CC923D"/><stop offset=".102" stop-color="#D7B56D"/><stop offset=".439" stop-color="#FFF7B2"/><stop offset=".561" stop-color="#D7B56D"/><stop offset=".678" stop-color="#FDDD70"/><stop offset="1" stop-color="#D7B56D"/></linearGradient><linearGradient id="id19" x1="68630" x2="64836.3" y1="17679.8" y2="25548.8" gradientUnits="userSpaceOnUse" xlink:href="#id18"/><linearGradient id="id20" x1="68581.4" x2="68968.4" y1="17781.7" y2="16847.5" gradientUnits="userSpaceOnUse"><stop offset="0" stop-color="#CC923D"/><stop offset=".459" stop-color="#D3A85B"/><stop offset="1" stop-color="#E9CF88"/></linearGradient><linearGradient id="id21" x1="64155.8" x2="65071.2" y1="16727.6" y2="16283" gradientUnits="userSpaceOnUse" xlink:href="#id20"/><linearGradient id="id22" x1="70091.4" x2="69566.7" y1="17958.1" y2="17850.1" gradientUnits="userSpaceOnUse" xlink:href="#id10"/><linearGradient id="id23" x1="65170.2" x2="64850.8" y1="17859.7" y2="17432.3" gradientUnits="userSpaceOnUse" xlink:href="#id10"/><linearGradient id="id24" x1="68961.8" x2="69357.4" y1="17951.7" y2="16996.2" gradientUnits="userSpaceOnUse" xlink:href="#id20"/><linearGradient id="id25" x1="64331.8" x2="65259" y1="17105.1" y2="16654.8" gradientUnits="userSpaceOnUse" xlink:href="#id20"/><linearGradient id="id26" x1="66448.6" x2="65032" y1="10520.7" y2="11163.5" gradientUnits="userSpaceOnUse" xlink:href="#id9"/><linearGradient id="id27" x1="66157.3" x2="65557.6" y1="11658" y2="13005.2" gradientUnits="userSpaceOnUse" xlink:href="#id9"/><linearGradient id="id28" x1="64685.3" x2="65088.1" y1="15838.8" y2="16668.4" gradientUnits="userSpaceOnUse"><stop offset="0" stop-color="#D7B56D"/><stop offset=".31" stop-color="#A86D29"/><stop offset=".639" stop-color="#A86D29"/><stop offset="1" stop-color="#FFF7B2"/></linearGradient><linearGradient id="id29" x1="68426.2" x2="69197.7" y1="16785.1" y2="17104.7" gradientUnits="userSpaceOnUse" xlink:href="#id28"/><linearGradient id="id30" x1="68547.5" x2="68966.8" y1="18280.1" y2="18453.8" gradientUnits="userSpaceOnUse"><stop offset="0" stop-color="#D7B56D"/><stop offset="1" stop-color="#CC923D"/></linearGradient><linearGradient id="id31" x1="68080.1" x2="67655.1" y1="18018.9" y2="17843.1" gradientUnits="userSpaceOnUse" xlink:href="#id10"/><linearGradient id="id32" x1="63846.7" x2="63956.3" y1="17167.7" y2="17393.5" gradientUnits="userSpaceOnUse" xlink:href="#id30"/><linearGradient id="id33" x1="63581.9" x2="63469.5" y1="16479.8" y2="16248" gradientUnits="userSpaceOnUse" xlink:href="#id10"/><linearGradient id="id34" x1="67332.2" x2="71482.6" y1="14698.2" y2="17175.9" gradientUnits="userSpaceOnUse"><stop offset="0" stop-color="#CC923D"/><stop offset="1" stop-color="#FFF7B2"/></linearGradient><linearGradient id="id35" x1="65058.7" x2="66996.9" y1="13807.8" y2="17997.9" gradientUnits="userSpaceOnUse"><stop offset="0" stop-color="#FDE389"/><stop offset="1" stop-color="#CC923D"/></linearGradient></defs><g id="Слой_x0020_1"><g id="_871066640"><path d="M64701 17823c-139-445 213-406 242-286l228 947c40 167 179 257 272 112l281-439c81-128 268-105 354 20l363 531c208 303 582 400 820 120l2261-2659c11-13 207-206 208-175 3 135-165 549-262 655l-2315 2528c-248 271-639 163-852-137l-347-487c-88-123-257-143-333-13l-240 411c-87 149-299 110-348-55l-180-611c-112-378-108-326-151-464z" class="fil0"/><path d="M63933 14576l-132-497c-65-244 21-655 309-963-18 398 401 1549-176 1460zm-363 1075l-359-506c-92-130 22-515 151-609l369 827c50 112 24 233-94 268l-67 19z" class="fil1"/><path d="M67755 14244c276 532 557 1111 809 1665 32-38 64-76 96-115 48-58 68-152 35-223-254-558-532-1155-810-1692-36-69-103-110-178-109-432 7-884 56-1298 109-61 8-109 42-138 96-29 55-24 113-5 174l26 83c413-53 853-91 1284-99 75-1 142 40 178 109z" class="fil2"/><path d="M62477 16459l17-8-3 16zM58310 18512l9-33 29-14-15 55z" class="fil3"/><path d="M63779 18272l-370-87-149 337-279 135-281-67-234 317-153 74-382-68-183 342-229 111-526-190-369 179-132 509-161 78-461-221-542 263-244 563-1411 681-551-173-152-246-464-370-210-433 396-1017 1263-613 376 143 101-375 136-66 412 200 174-484 1515-735 501 138 277-516 777-377 265 163 53-319 1088-527c111-54 134-190 63-290l-369-520c-100-141 1-331 172-307l471 66c150 21 239-124 196-270l-168-573c-103-352 53-727 420-754l3418-255c225-17 430 91 528 294l1315 2707c99 203 57 430-96 597l-2315 2528c-248 271-639 163-852-137l-347-487c-88-123-257-143-333-13l-240 411c-87 149-299 110-348-55l-180-611c-35-118-157-184-267-130l-922 449zm4091-4362c278 536 543 1084 797 1641 33 72 23 150-25 208-270 328-558 636-858 933-44 43-100 61-161 49-61-11-110-47-140-104-431-808-830-1632-1199-2470-26-58-24-119 5-174s77-88 138-96c414-53 834-89 1266-96 75-1 142 39 178 109z" class="fil4"/><path d="M56740 20626l-232-185-211-433 8553-4153 327 674z" class="fil5"/><path d="M63779 18272l-370-87-149 337-279 135-281-67-234 317-153 74-382-68-183 342-229 111-526-190-369 179-132 509-161 78-461-221-542 263-244 563-1411 681-551-173-152-246-232-185 8438-4097 409 843c61 125 8 276-117 337l-502 244c-35-118-157-184-267-130l-922 449zm-7482 1736l396-1017 1263-613 376 143 101-375 136-66 412 200 174-484 1515-735 501 138 277-516 777-377 265 163 53-319 1088-527c111-54 134-190 63-290l502-244c125-60 276-8 337 117l316 651-8553 4153z" class="fil6"/><path d="M64283 16963l894-434 409 843c61 125 8 276-117 337l-502 244c-35-118-157-184-267-130l-418-860zm-327-674l-324-667c111-54 134-190 63-290l502-244c125-60 276-8 337 117l316 651-894 434z" class="fil7"/><path d="M65587 17372c61 125 8 276-117 337l-502 244c-35-118-157-184-267-130l-107-220 993-231z" class="fil8"/><path d="M63739 15842l-107-220c111-54 134-190 63-290l502-244c125-60 276-8 337 117l-795 638z" class="fil9"/><path d="M65290 15143l-82-170c-4-8-4-17-2-26 3-9 9-15 17-19l16-8c14-7 21-21 18-36s-15-26-31-27l-58-3c-12-1-22-8-28-19l-195-401c-5-11-4-22 2-32l45-71-49 24c-8 4-17 4-26 1s-15-9-19-17l-94-197c-8-16-1-36 15-44l46-22-82-8c-12-1-21-8-27-19l-107-221c-5-11-4-24 3-34s18-15 31-14l382 41c14 1 26-5 33-17l164-300c6-11 17-18 30-17 13 0 24 7 29 19l107 219c5 11 5 22-2 32l-39 64 42-21c8-4 17-4 26-1s15 9 19 17l94 197c8 16 1 36-15 44l-43 21 77 9c12 1 21 8 26 18l189 388c8 17 1 36-15 45l-54 26c-14 7-21 21-18 36s15 26 30 27l107 7c12 1 22 8 28 19l85 176c8 16 1 36-15 44l-415 202c24 28 78 9 106-5l329-160c17-8 36-1 45 15l214 440c8 17 1 36-15 45l-63 31c-12 6-19 18-19 32 1 14 9 25 22 30 52 18 97 49 135 91 10 11 26 14 39 7l5-2c16-8 36-1 44 15l91 187c8 17 1 36-15 45-14 6-21 21-18 36 13 71 2 143-32 206-6 10-6 21 0 32 6 10 15 16 27 17 118 10 225 76 285 199 48 98 49 198 15 284-5 13-2 27 8 37 10 9 25 12 37 5l37-18c8-4 17-5 25-2 9 3 15 9 19 17l96 198c8 17 1 36-15 44l-142 69c-16 8-23 28-15 44l4 7c8 17 28 23 44 15l142-69c16-8 36-1 44 15l95 195c8 17 1 36-15 45l-341 165c-16 8-23 26-16 42 6 16 24 25 41 20 39-12 81-32 98-41l252-121c17-8 36-1 44 15l207 426c8 17 1 36-15 44l-383 186c-15 7-22 24-17 40l1 4c5 16-2 33-18 41l-231 108c-19 9-41 18-62 23l-20 4c-15 3-30-4-37-18l-76-157c-8-16-2-34 13-43l21-13c16-9 32-19 49-27 16-8 22-28 14-44l-62-127c-8-16-27-23-43-16-17 7-35 14-53 21l-22 8c-16 6-34-1-41-17l-78-159c-7-14-3-30 9-40 21-17 48-35 72-47 17-8 23-28 15-45l-72-148c-8-17-1-36 15-45l168-82c17-8 23-28 15-45l-3-7c-8-17-28-24-45-15l-168 82c-16 8-36 1-44-15l-96-195c-4-8-5-17-2-26s9-15 17-19l37-18c13-6 20-19 19-33s-11-25-24-29c-88-25-163-87-212-190-60-127-42-254 28-354 7-10 8-21 4-32s-13-18-25-20c-49-9-96-29-134-55-18-13-35-28-51-45-10-11-25-14-39-8l-5 2c-16 8-36 1-44-16l-91-187c-4-8-4-17-1-26s9-15 17-19l3-1c14-6 21-21 19-36-10-54-7-109 10-160 4-13 0-26-10-35s-24-11-36-5l-62 30c-16 8-36 1-44-15l-95-193c-4-8-5-17-2-26s9-15 17-19l35-17c13-6 20-20 18-34s-12-25-26-28c-105-23-183-106-213-226-1-2-1-4-2-6zm175-810l-116-22c-14-3-27 3-34 15l-72 114c-8 13-7 29 3 40s26 14 39 8l189-92c13-6 20-20 19-34-2-15-13-26-27-28zm793 2225c31 65 96 35 147 11 48-23 107-59 78-119-28-55-96-33-140-11-43 22-112 61-85 119z" class="fil10"/><path d="M64875 14174l215-104-280-26-80-164 396 43 169-309 78 160-138 227 202-98 71 148-202 98 265 32 78 160-347-66-215 339-77-158 151-237-215 104-71-148zm2258 3215l184 378-432 210 19 59-209 98c-13 6-34 15-49 19l-56-116c42-25 84-45 127-66l-142-292c-45 22-86 41-130 57l-57-116c15-11 22-15 47-31l204-97c25 34 33 49 67 55 14 2 33 2 46 0 49-7 99-22 154-49l228-109zm-54 198l-129 61c-34 16-95 33-124 37-36 6-51 3-87 1l71 149 314-155-45-93zm-825-567l564-276 73 150-202 98 85 175 202-98 71 147-564 274-71-147 228-111-85-175-228 111-73-148zm-176-338c-80-169 4-335 168-415 161-78 339-34 418 129 82 169 1 334-156 410-163 79-342 61-430-124zm130-65c43 91 125 87 227 40 89-41 151-109 106-200-46-93-149-74-220-38-87 43-154 110-112 198zm-475-625l52-24c-43-94-37-217 51-302 47-45 147-89 206-89 138 1 208 84 247 145l50-24 68 139-48 23c30 66 49 193-48 289-40 39-94 70-158 90-63 20-159 3-223-42-34-24-62-56-77-91l-53 25-68-139zm167-83l279-134c-58-54-121-39-179-13-44 20-119 76-100 147zm347 6l-279 136c42 53 120 39 175 13 44-22 120-69 105-148zm-270-905l190 392-563 274-72-145 436-214-47-97-187 91c-21 10-44 18-63 25-134 51-252 2-308-129l116-79c47 75 123 65 194 31l305-148zm-300-612l64 132-348 169 444 28 67 138-562 273-65-134 314-151-400-24-76-157 562-273z" class="fil11"/><path d="M64061 16506l105 216-7658 3719-105-217z" class="fil12"/><path d="M64862 15878l304 628-1000 216-105-216z" class="fil13"/><path d="M65189 16552l-800 628-7462 3601-187-155z" class="fil14"/><path d="M63851 16072l988-241-8542 4177 129-331z" class="fil15"/><path d="M64839 15831l23 47-8553 4153-12-23 14-36z" class="fil16"/><path d="M65166 16506l23 46-8427 4092-45-36z" class="fil17"/><path d="M63778 18464l-370-87-149 337-279 136-281-67-234 317-153 74-382-68-183 342-229 111-526-190-369 179-132 509-161 78-461-221-542 263-244 563-1411 681-551-173-152-246-464-370-210-433 42-108 170 350 464 370 152 246 551 173 1411-681 244-563 542-263 461 221 161-78 132-509 369-179 526 190 229-111 183-342 382 68 153-74 234-317 281 67 279-135 149-337 370 87 922-449c3-2 6-3 9-4l48 166-981 479z" class="fil18"/><g><path d="M69715 18242c-399-240-110-445-9-375l799 557c141 99 305 74 278-96l-82-515c-24-150 131-257 278-220l624 155c356 89 701-87 693-454l-74-3489c0-17 18-292 40-268 92 99 241 519 239 664l-52 3427c-6 367-370 546-728 464l-582-134c-148-34-287 63-257 212l94 466c34 169-150 281-297 190l-541-337c-335-209-297-172-421-246z" class="fil19"/><path d="M66985 16324l-429-284c-211-139-419-504-408-925 251 309 1329 892 837 1209zm443 1045l-604-140c-155-36-326-400-291-555l825 373c112 51 173 159 107 263l-37 59z" class="fil20"/><path d="M69623 13538c560 215 1154 462 1710 708-1-50-2-100-4-149-3-76-50-158-122-190-560-249-1165-511-1728-727-73-28-150-14-205 36-318 292-624 628-898 943-40 46-54 103-39 163s57 101 112 133l75 45c274-314 577-634 895-926 55-51 132-64 205-36z" class="fil21"/><path d="M67147 18698l7-17 9 14zM65393 23000l-15-30 13-30 25 51z" class="fil3"/><path d="M69324 19189l-334 181 112 351-119 287-255 137 36 392-65 157-330 203 90 377-97 235-519 207-157 379 239 468-68 165-491 141-230 556 192 583-603 1446-527 237-278-83-592 31-445-184-379-1024 537-1297 376-143-173-348 58-139 441-124-191-478 644-1555 467-229-136-570 331-798 306-54-172-273 464-1117c47-114-26-231-145-259l-621-144c-168-39-219-249-76-344l396-263c126-84 96-251-32-332l-506-317c-311-195-443-579-187-842l2386-2460c157-162 382-217 590-131l2781 1152c208 86 328 284 325 510l-52 3427c-6 367-370 546-728 464l-582-134c-148-34-287 63-257 212l94 466c34 169-150 281-297 190l-541-337c-104-65-239-33-286 80l-391 947zm163-5978c564 216 1126 450 1686 698 72 32 117 97 120 172 16 424 5 846-22 1267-4 61-34 112-88 144-53 32-114 38-174 15-859-318-1704-669-2537-1051-58-27-97-73-112-133s-1-117 39-163c274-315 565-621 883-913 55-51 132-64 205-36z" class="fil22"/><path d="M65623 25624l-296 15-446-184 3639-8784 692 287z" class="fil23"/><path d="M69324 19189l-334 181 112 351-119 287-255 137 36 392-65 157-330 203 90 377-97 235-519 207-157 379 239 468-68 165-491 141-230 556 192 583-603 1446-527 237-278-83-296 16 3590-8666 866 359c128 53 189 201 136 329l-214 516c-104-65-239-33-286 80l-391 947zm-4443 6265l-379-1024 537-1297 376-143-173-348 58-139 441-124-191-478 644-1555 467-229-136-570 331-798 306-54-172-273 464-1117c47-114-26-231-145-259l214-516c53-128 201-189 329-136l668 277-3638 8784z" class="fil24"/><path d="M68832 17876l380-918 866 359c128 53 189 201 136 329l-214 516c-104-65-239-33-286 80l-883-366zm-692-287l-685-284c47-114-26-231-145-259l214-516c53-128 201-189 329-136l668 277-380 918z" class="fil25"/><path d="M70079 17317c128 53 189 201 136 329l-214 516c-104-65-239-33-286 80l-226-94 589-832z" class="fil26"/><path d="M67680 17399l-226-94c47-114-26-231-145-259l214-516c53-128 201-189 329-136l-171 1005z" class="fil27"/><path d="M68376 15847l-174-72c-8-4-15-10-18-18-4-9-4-17 0-26l7-16c6-14 2-30-11-39-12-9-29-9-41 0l-46 36c-10 8-22 9-33 5l-412-171c-11-5-18-14-20-26l-13-83-21 50c-4 9-10 15-18 18-9 4-17 3-26 0l-200-85c-17-7-25-27-18-43l20-48-66 49c-10 7-21 9-32 4l-227-94c-11-5-19-15-20-27s4-24 14-31l313-223c11-8 16-21 13-35l-77-333c-3-12 1-25 11-33s22-10 34-5l225 93c11 4 18 13 20 25l13 74 18-43c4-9 10-15 18-18 9-4 17-3 26 0l200 85c17 7 25 26 18 43l-18 44 64-44c10-7 21-8 32-3l399 165c17 7 25 26 18 43l-23 56c-6 14-2 30 11 39 12 9 29 9 41 0l84-66c10-8 22-9 33-4l180 75c17 7 25 27 18 43l-177 426c37 5 64-45 76-75l140-338c7-17 27-25 44-18l452 187c17 7 25 27 18 44l-27 65c-5 13-2 26 7 36 10 10 23 13 36 7 51-21 105-27 161-21 15 2 28-6 34-20l2-5c7-17 27-25 43-18l192 80c17 7 25 26 18 43-6 14-2 30 10 39 56 45 97 106 113 175 3 11 10 20 21 24s22 2 31-5c95-71 219-93 345-41 101 42 168 115 200 203 5 13 17 21 31 22 14 0 26-8 31-21l16-38c4-9 9-15 18-18 9-4 17-4 26 0l203 84c17 7 25 27 18 43l-60 146c-7 17 1 36 18 43l7 3c17 7 36-1 44-18l60-146c7-17 27-25 43-18l200 83c17 7 25 27 18 43l-145 350c-7 16 0 34 16 42s35 2 44-12c21-35 39-78 46-95l108-257c7-17 27-25 43-18l437 181c17 7 25 27 18 43l-163 393c-6 16 0 33 14 42l4 2c15 9 21 26 14 42l-101 234c-9 20-19 41-31 58l-12 17c-9 13-25 17-40 11l-161-67c-16-7-24-24-19-41l7-23c6-18 12-35 18-53 6-17-2-36-18-42l-130-54c-16-7-35 0-43 17s-16 34-25 51l-11 21c-8 15-26 22-42 15l-164-67c-15-6-23-20-20-36 4-27 13-58 23-83 7-17-1-36-18-43l-152-63c-17-7-25-27-18-44l72-173c7-17-1-36-18-43l-7-3c-17-7-36 1-43 18l-72 173c-7 17-26 25-43 18l-202-82c-9-3-15-9-18-18-4-8-4-17 0-26l16-38c5-13 2-27-8-37s-25-12-37-6c-82 39-179 43-285-1-129-55-200-162-214-283-1-11-8-21-18-26s-22-5-32 1c-43 26-91 43-136 48-22 3-45 3-67 0-15-2-28 6-34 20l-2 5c-7 17-27 24-43 17l-192-80c-9-4-15-10-18-18-3-9-3-17 0-26l1-3c6-14 2-30-10-40-43-34-77-77-99-126-6-12-17-20-31-20s-25 8-30 21l-26 64c-7 17-26 25-43 18l-199-81c-9-3-15-9-18-18-4-8-4-17 0-26l15-36c6-13 2-28-9-38s-26-11-38-4c-94 53-207 42-310-28l-6-3zm-407-722l-102 61c-12 7-18 20-16 34l21 133c2 15 14 26 29 28s29-6 35-20l80-194c6-13 2-28-9-38s-26-11-39-3zm2070 1137c66 28 95-37 117-89 21-49 42-115-21-140-57-23-94 39-112 84s-43 120 15 145z" class="fil28"/><path d="M67406 15402l92-221-227 166-168-70 325-231-79-343 164 68 47 261 86-207 151 64-86 208 220-152 164 68-303 181 64 396-162-67-44-277-92 221-151-64zm3823 905l388 161-184 443 53 31-92 212c-6 13-15 34-25 47l-119-49c15-47 32-90 51-134l-300-124c-19 47-37 88-60 129l-119-49c3-18 6-26 15-54l88-207c41 9 58 15 87-4 12-7 26-20 35-31 32-38 59-82 82-139l98-233zm91 184l-56 131c-15 35-50 88-68 110-23 28-36 36-65 58l152 64 132-324-95-40zm-993 123l238-581 154 64-86 207 180 75 86-207 151 62-240 579-151-62 97-234-180-74-97 234-152-62zm-356-136c-171-73-219-253-149-422 69-165 230-250 398-181 174 72 222 249 155 410-69 168-215 273-404 193zm54-135c93 40 151-17 196-121 39-90 41-182-53-220-96-39-160 44-190 118-36 90-42 184 47 223zm-770-152l23-53c-94-41-172-138-163-260 5-65 51-165 95-203 104-90 211-76 281-56l21-51 143 59-20 49c66 30 165 112 156 248-4 56-24 115-58 172s-116 107-194 117c-42 5-84-1-118-17l-24 54-143-59zm70-173l119-285c-79-3-117 51-142 109-19 44-38 136 23 176zm264-226l-119 287c67 12 116-50 139-107 19-46 44-131-20-180zm-803-498l403 167-240 579-150-61 184-449-100-41-80 192c-9 22-21 43-30 61-67 127-187 169-316 108l34-136c85 25 136-33 165-105l130-313zm-630-258l136 56-148 358 351-274 141 59-239 577-138-57 135-322-315 247-161-67 239-577z" class="fil29"/><path d="M68362 17681l223 93-3258 7865-223-92z" class="fil30"/><path d="M68544 16681l644 267-603 826-223-93z" class="fil31"/><path d="M69236 16968l-181 1000-3189 7647-243 9z" class="fil32"/><path d="M67917 17497l579-836-3615 8794-123-333z" class="fil33"/><path d="M68496 16661l48 20-3638 8784-25-10-13-36z" class="fil34"/><path d="M69188 16948l48 20-3584 8654-58 3z" class="fil35"/><path d="M69450 19334l-334 181 112 351-119 287-255 137 36 392-65 157-331 203 90 377-97 235-519 207-157 379 239 468-68 165-492 141-230 556 192 583-603 1446-527 236-278-83-592 31-445-184-40-109 360 149 592-31 278 83 527-237 603-1446-192-583 230-556 491-141 68-165-239-468 157-379 519-207 97-235-90-377 330-203 65-157-36-392 255-137 119-287-112-351 334-181 391-947c1-3 3-6 4-10l146 92-415 1009z" class="fil36"/></g><path d="M1716 14790l205 681h646l-827-2654H956l-811 2654h622l185-681h764zm-677-449l161-563c39-154 83-354 118-512h12c39 154 87 354 130 512l165 563h-587zm2237-1524v2654h599v-2162h1004v-492H3276zm3851 1044h-977v-551h1036v-492H5552v2654h1689v-492H6150v-630h977v-488zm878-1044v2654h598v-1107h989v1107h598v-2654h-598v1024h-989v-1024h-598zm3575 2654h599v-2150h725v-504h-2040v504h717v2150zm3851-547c-122 51-319 87-504 87-532 0-847-335-847-862 0-591 370-878 843-878 216 0 386 47 504 98l126-476c-106-51-343-114-654-114-803 0-1449 500-1449 1402 0 756 473 1332 1390 1332 319 0 571-64 677-115l-87-473zm1350 547h599v-2150h725v-504h-2040v504h717v2150zm1992-12c134 20 354 40 650 40 528 0 851-87 1044-241 165-130 276-319 276-563 0-343-224-575-528-654v-8c295-114 433-331 433-563 0-244-130-425-315-524-193-114-418-150-784-150-303 0-618 28-776 59v2603zm595-2205c47-12 122-20 256-20 272 0 425 106 425 307 0 197-165 327-484 327h-197v-614zm0 1044h205c299 0 540 106 540 374 0 280-240 386-512 386-102 0-173 0-232-12v-748zm3264 1217c776 0 1300-524 1300-1399 0-733-445-1343-1260-1343-780 0-1292 595-1292 1390 0 756 465 1351 1248 1351h4zm24-477c-402 0-642-390-642-890 0-496 232-898 646-898s638 409 638 886c0 520-232 902-638 902h-4zm3765-2221v2654h599v-1107h988v1107h599v-2654h-599v1024h-988v-1024h-599zm4639 1044h-977v-551h1036v-492h-1634v2654h1689v-492h-1091v-630h977v-488zm1244-1044v709c0 323-31 614-102 882-59 209-146 406-252 591l-224 16 24 1127h457l31-670h1556l31 670h449l28-1127-260-16v-2182h-1737zm555 488h583v1682h-882c67-130 134-291 181-453 79-268 118-567 118-878v-351zm2134 2154c134 20 354 40 650 40 528 0 851-87 1044-241 165-130 276-319 276-563 0-343-224-575-528-654v-8c295-114 433-331 433-563 0-244-130-425-315-524-193-114-418-150-784-150-303 0-618 28-776 59v2603zm595-2205c47-12 122-20 256-20 272 0 425 106 425 307 0 197-165 327-484 327h-197v-614zm0 1044h205c299 0 540 106 540 374 0 280-240 386-512 386-102 0-173 0-232-12v-748zm2134-1481v2654h681l540-957c158-280 331-630 453-945h12c-35 347-43 709-43 1118v784h551v-2654h-614l-571 1044c-158 284-335 634-477 945h-12c20-354 32-776 32-1201v-788h-551zm2831 0l902 1185c-354 67-524 319-638 662-87 260-162 547-276 807h603c83-177 134-398 189-587 87-284 213-524 536-524h94v1110h579v-1110h91c327 0 453 240 536 524 55 189 110 409 193 587h606c-118-260-181-547-276-823-110-343-283-606-646-646l906-1185h-697l-662 1103h-51v-1103h-579v1103h-51l-662-1103h-697zm4032 0v2654h681l540-957c158-280 331-630 453-945h12c-35 347-43 709-43 1118v784h551v-2654h-614l-571 1044c-158 284-335 634-476 945h-12c20-354 31-776 31-1201v-788h-551zm5356 2654h583l-142-2654h-788l-280 882c-91 295-181 646-252 953h-16c-59-311-138-642-225-949l-260-886h-799l-169 2654h555l51-1008c16-331 32-740 43-1099h8c67 350 154 725 240 1036l284 1028h469l323-1036c102-311 213-689 299-1028h8c0 390 12 772 24 1091l43 1016zm2365 44c776 0 1300-524 1300-1399 0-733-445-1343-1260-1343-780 0-1292 595-1292 1390 0 756 465 1351 1248 1351h4zm24-477c-401 0-642-390-642-890 0-496 232-898 646-898s638 409 638 886c0 520-233 902-638 902h-4zm3667-114c-122 51-319 87-504 87-532 0-847-335-847-862 0-591 370-878 843-878 216 0 386 47 504 98l126-476c-106-51-343-114-654-114-803 0-1449 500-1449 1402 0 756 473 1332 1390 1332 319 0 571-64 677-115l-87-473zm1350 547h599v-2150h725v-504h-2040v504h717v2150zm1992-2654v2654h681l540-957c157-280 331-630 453-945h12c-35 347-43 709-43 1118v784h551v-2654h-614l-571 1044c-158 284-335 634-476 945h-12c20-354 31-776 31-1201v-788h-551z" class="fil37"/><g><path d="M5036 9992V6324l-2240 3686H0l3246-5183L112 424h2725l2199 3427V406l2521 18v3446L9776 424h2729L9273 4774l3234 5236H9815L7557 6342v3668zM13514 424h2255v5939l3364-5939h2346v9586h-2292l18-5353-3014 5353h-2677zM23959 387h6686v9605l-2485 18-36-7445h-1661v3189c0 362-45 726-74 1041-200 2195-1653 3491-3844 3381l-313-2121c889-97 1330-528 1541-1237 76-256 186-926 186-1226V387zM35874 10335l18-881c-1577-36-3246-948-3828-2733-311-954-245-2631 154-3434 941-1891 2548-2314 3655-2440V0h2378v811c1110 36 2994 616 3662 2599 274 815 334 1769 190 2779-145 1010-1019 2208-2065 2792-563 314-1193 473-1768 454l-18 900h-2378zm-28-2864l17-4747c-1137 429-1354 1407-1374 2383-15 742 256 2147 1357 2364zm2411-4747v4764c1016-217 1342-1391 1342-2326 0-757-144-2112-1342-2437zM47697 10195c-2861-29-4595-2302-4595-5104 0-2747 1795-4900 4576-4900 2886 0 4611 2217 4611 4900 0 2782-1445 5135-4593 5104zm-21-2226c1550 17 2039-1136 2067-2861 24-1503-486-2813-2046-2800-1592 13-2016 1560-2002 2783 17 1490 483 2861 1981 2878zM53540 10027l-34-9630h2558v3439h2983V397l2503-1v9614h-2503V6117h-2983v3893zM64519 374h6448v7362l941 129-56 3542c-3 220-15 569-74 808h-1978c-61-750-66-1462-64-2193h-4974c4 775-11 1465-83 2184l-1980 9c-57-275-67-402-107-854l33-3459c631-117 901-129 1208-562 124-175 246-440 311-641 233-720 352-1510 356-2447l18-3877zm2375 2074l-18 2190c-5 585-190 1535-320 1963-161 532-296 726-574 1202l2532 9-36-5364h-1583z" class="fil38"/></g><g><path d="M69099 7143c1360 276 2116 2211 1687 4323-300 1477-1099 2648-2018 3125l-233-104s257-276 482-513c641-521 1178-1453 1407-2580 385-1894-243-3621-1404-3858-395-80-801 23-1180 268h-604c564-531 1222-791 1862-661zm-2747 2878c-51 167-94 340-130 517-170 836-143 1640 41 2297l-375 28c-180-702-203-1535-28-2397 31-152 67-300 108-445h384z" class="fil39"/><path d="M70887 9838c111 2466-936 4173-2119 4752l-169-75c42-18 84-38 126-60 1530-789 2248-3093 2162-4616z" class="fil40"/><path d="M69466 13767c571-653 935-1513 1107-2357 252-1244 197-3327-1298-3948 1480 782 1448 2653 1176 3990-177 869-711 2125-1609 2707-64 68-124 132-174 186 297-127 576-323 799-578zM65912 10572c-157 773-171 1531 36 2286l74-6c-375-1124-94-1885-110-2281z" class="fil41"/><path d="M66357 10021c-257 825-347 1797-84 2814l-44 3c-289-761-304-1811-13-2817h140zm1258-2217c876-653 1707-341 2032 39-525-465-1212-449-1829-39h-202z" class="fil40"/></g></g></g></svg>